<svg width="512" height="283" viewBox="0 0 512 283" fill="none" xmlns="http://www.w3.org/2000/svg">
    <path d="M73.1396 69.6896C63.184 69.6896 54.5097 72.0553 47.2155 76.5896C40.0198 81.1238 36.077 79.6453 36.077 69.9853V12.0256C36.077 4.23855 31.8384 0 24.0513 0H12.0257C4.23855 0 0 4.23855 0 12.0256V209.66C0 217.447 4.23855 221.686 12.0257 221.686H24.0513C31.8384 221.686 36.077 217.447 36.077 209.66V142.829C36.077 115.131 53.524 105.767 73.1396 105.767C92.7553 105.767 108.329 122.622 108.329 147.265V209.562C108.329 217.349 112.568 221.587 120.355 221.587H132.381C140.168 221.587 144.406 217.349 144.406 209.562V148.152C144.406 103.302 119.468 69.591 73.0411 69.591L73.1396 69.6896Z" fill="white"/>
    <path d="M343.619 75.3084H331.593C323.806 75.3084 319.568 79.5469 319.568 87.3341V173.288C312.963 183.244 301.233 187.088 288.518 187.088C268.311 187.088 253.328 170.232 253.328 145.589V87.3341C253.328 79.5469 249.089 75.3084 241.302 75.3084H229.276C221.489 75.3084 217.251 79.5469 217.251 87.3341V144.702C217.251 189.552 242.288 223.263 288.616 223.263C300.938 223.263 311.485 219.32 319.666 212.716V227.206C319.666 233.81 309.119 245.836 291.672 245.836C282.308 245.836 274.816 245.245 268.212 242.78C261.312 240.02 256.186 240.02 251.652 246.132L244.752 255.2C239.922 261.509 240.218 268.113 246.822 272.056C258.848 278.956 275.408 282.012 291.672 282.012C328.439 282.012 355.842 258.552 355.842 227.206V87.3341C355.842 79.5469 351.603 75.3084 343.816 75.3084H343.619Z" fill="white"/>
    <path d="M505.965 181.962C502.417 176.738 502.417 166.487 502.417 157.122V130.508C502.417 100.05 476.985 74.027 437.163 74.027C392.116 74.027 367.769 106.851 367.769 150.42C367.769 183.737 391.82 223.263 440.613 223.263C455.004 223.263 466.34 217.448 474.817 211.829C479.45 216.265 486.251 218.236 495.911 219.715C503.501 221.194 508.232 217.349 509.415 210.055L511.781 195.466C512.964 189.059 509.12 187.285 505.965 181.962ZM440.711 188.074C416.463 188.074 403.254 168.754 403.254 149.434C403.254 122.228 422.87 109.02 437.163 109.02C450.371 109.02 464.96 112.568 467.03 132.972L467.325 177.428C462.101 182.652 453.821 187.975 440.711 187.975V188.074Z" fill="white"/>
    <path d="M172.696 66.6343C156.826 60.5229 138.689 43.0758 138.887 24.643C138.887 16.8559 134.648 12.6173 126.861 12.6173H124.889C117.102 12.6173 112.864 16.8559 112.864 24.643V31.543C112.864 47.6101 122.129 62.0014 132.874 72.7457C150.025 88.1228 160.769 110.991 162.741 138.887V209.562C162.741 217.349 166.979 221.588 174.766 221.588H186.792C194.579 221.588 198.818 217.349 198.818 209.562V88.2213C198.818 73.83 185.313 71.4643 172.598 66.6343H172.696Z" fill="white"/>
    <path d="M180.878 49.0882C194.161 49.0882 204.929 38.3201 204.929 25.0368C204.929 11.7536 194.161 0.985474 180.878 0.985474C167.594 0.985474 156.826 11.7536 156.826 25.0368C156.826 38.3201 167.594 49.0882 180.878 49.0882Z" fill="white"/>
</svg>
